<mxfile host="app.diagrams.net" agent="Mozilla/5.0 (Macintosh; Intel Mac OS X 10_15_7) AppleWebKit/537.36 (KHTML, like Gecko) Chrome/131.0.0.0 Safari/537.36" version="26.0.2">
  <diagram id="E077GCvfagM9r7N03H8r" name="cookbook3">
    <mxGraphModel dx="1699" dy="1070" grid="1" gridSize="10" guides="1" tooltips="1" connect="1" arrows="1" fold="1" page="1" pageScale="1" pageWidth="1700" pageHeight="1100" math="0" shadow="0">
      <root>
        <mxCell id="0" />
        <mxCell id="1" parent="0" />
        <mxCell id="OyN62THQJQESoDSO6VGz-1" value="" style="rounded=0;whiteSpace=wrap;html=1;strokeColor=none;" vertex="1" parent="1">
          <mxGeometry y="60" width="1700" height="980" as="geometry" />
        </mxCell>
        <mxCell id="IlfPTuKvDt6BWYe52CAe-12" value="" style="rounded=0;whiteSpace=wrap;html=1;fillColor=#caeff6;strokeColor=none;fontSize=24;" vertex="1" parent="1">
          <mxGeometry x="1400" y="720" width="243" height="200" as="geometry" />
        </mxCell>
        <mxCell id="IlfPTuKvDt6BWYe52CAe-16" value="" style="rounded=0;whiteSpace=wrap;html=1;strokeWidth=4;sketch=1;curveFitting=1;jiggle=2;fillColor=none;fontSize=24;" vertex="1" parent="1">
          <mxGeometry x="1400" y="720" width="243" height="200" as="geometry" />
        </mxCell>
        <mxCell id="IlfPTuKvDt6BWYe52CAe-18" value="" style="rounded=0;whiteSpace=wrap;html=1;fillColor=#FF6310;strokeColor=none;fontSize=24;" vertex="1" parent="1">
          <mxGeometry x="522" y="206.25" width="638" height="100" as="geometry" />
        </mxCell>
        <mxCell id="IlfPTuKvDt6BWYe52CAe-19" value="" style="rounded=0;whiteSpace=wrap;html=1;strokeWidth=4;strokeColor=#000000;fillColor=none;sketch=1;curveFitting=1;jiggle=2;fontSize=24;" vertex="1" parent="1">
          <mxGeometry x="522" y="81.25" width="638" height="310" as="geometry" />
        </mxCell>
        <mxCell id="IlfPTuKvDt6BWYe52CAe-7" value="Data validation results are viewed and shared in the GX Cloud web UI" style="text;html=1;align=left;verticalAlign=middle;whiteSpace=wrap;rounded=0;fontSize=24;" vertex="1" parent="1">
          <mxGeometry x="1373" y="185.63" width="300" height="120" as="geometry" />
        </mxCell>
        <mxCell id="IlfPTuKvDt6BWYe52CAe-8" value="Tutorial cookbook&lt;br&gt;(JupyterLab)" style="text;html=1;strokeColor=none;fillColor=none;align=center;verticalAlign=top;whiteSpace=wrap;rounded=0;fontSize=24;" vertex="1" parent="1">
          <mxGeometry x="342.5" y="941.26" width="275" height="78.74" as="geometry" />
        </mxCell>
        <mxCell id="IlfPTuKvDt6BWYe52CAe-9" value="" style="rounded=0;whiteSpace=wrap;html=1;strokeWidth=4;sketch=1;curveFitting=1;jiggle=2;fillColor=none;fontSize=24;" vertex="1" parent="1">
          <mxGeometry x="360" y="720" width="240" height="200" as="geometry" />
        </mxCell>
        <mxCell id="IlfPTuKvDt6BWYe52CAe-10" value="" style="shape=image;verticalLabelPosition=bottom;labelBackgroundColor=default;verticalAlign=top;aspect=fixed;imageAspect=0;image=data:image/svg+xml,PHN2ZyB4bWxucz0iaHR0cDovL3d3dy53My5vcmcvMjAwMC9zdmciIHZpZXdCb3g9IjAgMCAzMjAgMzIwIiBkYXRhLW5hbWU9IkxheWVyIDEiIGlkPSJMYXllcl8xIj4mI3hhOyAgPGRlZnM+JiN4YTsgICAgPHN0eWxlPiYjeGE7ICAgICAgLmNscy0xIHsmI3hhOyAgICAgICAgZmlsbDogI2ZmNjMxMDsmI3hhOyAgICAgIH0mI3hhOyAgICA8L3N0eWxlPiYjeGE7ICA8L2RlZnM+JiN4YTsgIDxwYXRoIGQ9Ik0xNTMuNTksMjI1LjI0djEyLjU3aDcxLjUxdjM0Ljg4Yy0uNDEsOC4yMS0xLjk4LDE2LjQxLTguMjUsMjIuMi0xMS44NiwxMC45NS00MC40NSwxMi45NS01Ni4xLDEzLjQ1LTExLjU3LjM3LTIwLjI1LS42Ny0zMS41My0zLjAzLTE3LjUtMy42Ny0zMy4xNC0xNS44My0zNC4zOS0zNC43N3YtNjkuOTZjMS4yOS0xOS40NiwxNi4wNi0zMy40NiwzNS40Ni0zNC4yOCwyMS43Ny0uOTIsNDQuMTguNzEsNjYuMDIsMCwyMi43LTIuMDEsNDEuMDUtMjIuMzMsNDEuMTctNDUuMDh2LTM4LjYxczI5LjU3LDAsMjkuNTcsMGMyOC44NCwxLjM4LDM2LjU1LDI5LjQxLDQwLjExLDUzLjIxLDIuNzksMTguNjgsMS4xMiwzNy45Mi00LjE2LDU2LjAzLTUuODcsMjAuMTMtMjIuNDYsMzMuMDgtNDMuNjEsMzMuNDFoLTEwNS44MVpNMTk1LjU5LDI1My43OGMtMTAuNzguMTMtMTcuMDIsMTIuMzktMTAuNzMsMjEuMjMsNi45Myw5Ljc0LDIyLjI5LDYuMDIsMjQuMDgtNS43MSwxLjIyLTguMDItNS4xNC0xNS42MS0xMy4zNS0xNS41MVoiIGNsYXNzPSJjbHMtMSIvPiYjeGE7ICA8cGF0aCBkPSJNOTQuODQsODIuMjF2LTM0LjI5Yy43NC0xOS4wNSw4LjU5LTI2Ljc0LDI2LjQ4LTMxLjQ3LDExLjAyLTIuOTEsMjQuNjgtNC40MywzNi4wOC00Ljc4LDExLjg1LS4zNywyMS40MS42NywzMi45MiwzLjA1LDE2Ljc2LDMuNDcsMzEuOTYsMTQuMzQsMzQuNTUsMzIuMjUuNTIsMjQuMjYuMDcsNDguNTkuMjMsNzIuODctMS4wMywxOC4xNC0xNS43MSwzMi45MS0zMy44OSwzMy44OWgtNjYuNjFjLTIxLjg4LDEuNDItNDAuMTcsMjAuMDItNDEuOTYsNDEuNzN2NDEuOTVzLTMwLjc1LDAtMzAuNzUsMGMtMTguNy0xLjAxLTI5LjYxLTE1LjM2LTM0LjU3LTMyLjAzLTcuNTgtMjUuNTEtNy44NS01MS40NC0uMzktNzcuMDEsNS41OS0xOS4xNiwyMC44OS0zMi4xOCw0MS4wNS0zMy40MWgxMDguMzZzMC0xMi43NiwwLTEyLjc2aC03MS41MVpNMTIyLjMxLDM5LjYzYy00LjkyLjU2LTkuNSw0LjY3LTEwLjg2LDkuMzgtMy4zNiwxMS42NCw4Ljk4LDIxLjU0LDE5LjU1LDE1LjQyLDEyLjQ2LTcuMjEsNi4yNi0yNi40OS04LjY5LTI0LjhaIiBjbGFzcz0iY2xzLTEiLz4mI3hhOzwvc3ZnPg==;fontSize=24;" vertex="1" parent="1">
          <mxGeometry x="423.75" y="777.5" width="110" height="110" as="geometry" />
        </mxCell>
        <mxCell id="IlfPTuKvDt6BWYe52CAe-11" value="GX Core" style="text;html=1;strokeColor=none;fillColor=none;align=left;verticalAlign=top;whiteSpace=wrap;rounded=0;fontSize=24;spacing=4;spacingLeft=9;" vertex="1" parent="1">
          <mxGeometry x="360" y="720" width="190" height="50" as="geometry" />
        </mxCell>
        <mxCell id="IlfPTuKvDt6BWYe52CAe-15" value="" style="shape=image;verticalLabelPosition=bottom;labelBackgroundColor=default;verticalAlign=top;aspect=fixed;imageAspect=0;image=data:image/svg+xml,PHN2ZyB4bWxucz0iaHR0cDovL3d3dy53My5vcmcvMjAwMC9zdmciIHZpZXdCb3g9IjAgMCAyNTYgMjU2IiBkYXRhLW5hbWU9IkxheWVyIDEiIGlkPSJMYXllcl8xIj4mI3hhOyAgPGcgaWQ9ImRhdGFiYXNlX2ljb24iPiYjeGE7ICAgIDxwYXRoIGQ9Ik0xMjIuOTEsMTguMDhsMTAuMTUtLjA1Yy4zNiwwLC42OS4xNSwxLjA1LjE2LDE3LjYzLjUsMzUuMjksMi44NCw1Mi4wNCw4LjQ3LDEzLjQ4LDQuNTMsMzQuNDksMTQuNTYsMzcuNjksMjkuOTYsMy45NywxOS4xMy0xOS41LDMxLjY4LTM0LjIzLDM3LjEyLTMwLjk5LDExLjQ1LTcxLjMzLDEyLjUxLTEwMy40OCw1LjU3LTE3LjEtMy42OS00Ni40My0xMy41LTUyLjg3LTMxLjY0czE0LjItMzEuNzMsMjguNDgtMzcuOGMxOS4xLTguMTMsNDAuNS0xMS4xLDYxLjE4LTExLjc5WiIvPiYjeGE7ICAgIDxwYXRoIGQ9Ik0yMjQuMTgsMTk2LjcyYy0xLjM1LDE0LjA2LTE5LjgzLDI0LjQ1LTMxLjQ3LDI5LjE4LTM0LjQ2LDE0LjAxLTg0LjQzLDE0LjM0LTExOS43NSwzLjMxLTE0Ljc3LTQuNjEtMzkuODktMTUuODEtNDAuOTMtMzMuODZ2LTMxLjdzMS4wNyw0LjE4LDEuMDcsNC4xOGM1LjY2LDE2Ljc4LDMxLjIxLDI2LjYsNDYuOTEsMzAuNjIsMjkuOCw3LjYxLDY1Ljc5LDcuNjgsOTUuNjIuMTgsMTUuNzctMy45Niw0Mi4xNS0xMy45OCw0Ny42NC0zMC45NWwuOTEtMy41OHYzMi42MVoiLz4mI3hhOyAgICA8cGF0aCBkPSJNMjI0LjE4LDEwNy44Yy0xLjMzLDE0LjU1LTIxLjA3LDI1LjE5LTMzLjEsMjkuODMtMzQuNzksMTMuNDItODMuNzksMTMuNjgtMTE5LjE4LDIuMzYtMTQuNC00LjYxLTM4LjgxLTE1Ljg1LTM5Ljg3LTMzLjR2LTMxLjdzMS4yMiw0LjQ5LDEuMjIsNC40OWM2LjM2LDE3LjU3LDM0LjEyLDI3LjM2LDUwLjc3LDMxLjE2LDI3Ljk5LDYuMzksNjAuMzMsNi4zNyw4OC4zMiwwLDE2LjUyLTMuNzYsNDQuNTMtMTMuNzIsNTAuNzMtMzEuMmwxLjEtNC4xNHYzMi42MVoiLz4mI3hhOyAgICA8cGF0aCBkPSJNMjI0LjE4LDE1Mi4zM2MtMS4zMiwxMy43MS0xOS40OSwyNC4yMS0zMC44NiwyOC44OC0zNC41OCwxNC4xOS04NC42OCwxNC42OS0xMjAuMiwzLjYyLTE0Ljc0LTQuNTktNDAuMDQtMTUuODUtNDEuMDktMzMuODZ2LTMxLjdzMS40MSw1LjA2LDEuNDEsNS4wNmM2LjA4LDE1Ljg2LDMwLjAyLDI1LjIzLDQ1LjIsMjkuMjksMzAuNTEsOC4xNiw2Ny40Miw4LjIxLDk3Ljk5LjI3LDE1LjUxLTQuMDMsNDAuMjktMTMuNTEsNDYuMzMtMjkuODJsMS4yMS00LjQ5djMyLjc2WiIvPiYjeGE7ICA8L2c+JiN4YTs8L3N2Zz4=;fontSize=24;" vertex="1" parent="1">
          <mxGeometry x="1453" y="752.5000000000001" width="135" height="135" as="geometry" />
        </mxCell>
        <mxCell id="IlfPTuKvDt6BWYe52CAe-17" value="GX tutorial data&lt;br&gt;(Postgres)" style="text;html=1;strokeColor=none;fillColor=none;align=center;verticalAlign=top;whiteSpace=wrap;rounded=0;fontSize=24;" vertex="1" parent="1">
          <mxGeometry x="1385.5" y="941.26" width="275" height="78.74" as="geometry" />
        </mxCell>
        <mxCell id="IlfPTuKvDt6BWYe52CAe-21" value="GX Cloud" style="text;html=1;strokeColor=none;fillColor=none;align=left;verticalAlign=top;whiteSpace=wrap;rounded=0;fontSize=24;spacing=10;spacingLeft=20;" vertex="1" parent="1">
          <mxGeometry x="522" y="81.25" width="190" height="50" as="geometry" />
        </mxCell>
        <mxCell id="IlfPTuKvDt6BWYe52CAe-24" value="Data pipeline&lt;br&gt;(Airflow DAG)" style="text;html=1;strokeColor=none;fillColor=none;align=center;verticalAlign=top;whiteSpace=wrap;rounded=0;fontSize=24;" vertex="1" parent="1">
          <mxGeometry x="742.5" y="941.26" width="275" height="84.37" as="geometry" />
        </mxCell>
        <mxCell id="IlfPTuKvDt6BWYe52CAe-25" value="" style="rounded=0;whiteSpace=wrap;html=1;strokeWidth=4;sketch=1;curveFitting=1;jiggle=2;fillColor=none;fontSize=24;" vertex="1" parent="1">
          <mxGeometry x="760" y="720" width="240" height="200" as="geometry" />
        </mxCell>
        <mxCell id="IlfPTuKvDt6BWYe52CAe-26" value="" style="shape=image;verticalLabelPosition=bottom;labelBackgroundColor=default;verticalAlign=top;aspect=fixed;imageAspect=0;image=data:image/svg+xml,PHN2ZyB4bWxucz0iaHR0cDovL3d3dy53My5vcmcvMjAwMC9zdmciIHZpZXdCb3g9IjAgMCAzMjAgMzIwIiBkYXRhLW5hbWU9IkxheWVyIDEiIGlkPSJMYXllcl8xIj4mI3hhOyAgPGRlZnM+JiN4YTsgICAgPHN0eWxlPiYjeGE7ICAgICAgLmNscy0xIHsmI3hhOyAgICAgICAgZmlsbDogI2ZmNjMxMDsmI3hhOyAgICAgIH0mI3hhOyAgICA8L3N0eWxlPiYjeGE7ICA8L2RlZnM+JiN4YTsgIDxwYXRoIGQ9Ik0xNTMuNTksMjI1LjI0djEyLjU3aDcxLjUxdjM0Ljg4Yy0uNDEsOC4yMS0xLjk4LDE2LjQxLTguMjUsMjIuMi0xMS44NiwxMC45NS00MC40NSwxMi45NS01Ni4xLDEzLjQ1LTExLjU3LjM3LTIwLjI1LS42Ny0zMS41My0zLjAzLTE3LjUtMy42Ny0zMy4xNC0xNS44My0zNC4zOS0zNC43N3YtNjkuOTZjMS4yOS0xOS40NiwxNi4wNi0zMy40NiwzNS40Ni0zNC4yOCwyMS43Ny0uOTIsNDQuMTguNzEsNjYuMDIsMCwyMi43LTIuMDEsNDEuMDUtMjIuMzMsNDEuMTctNDUuMDh2LTM4LjYxczI5LjU3LDAsMjkuNTcsMGMyOC44NCwxLjM4LDM2LjU1LDI5LjQxLDQwLjExLDUzLjIxLDIuNzksMTguNjgsMS4xMiwzNy45Mi00LjE2LDU2LjAzLTUuODcsMjAuMTMtMjIuNDYsMzMuMDgtNDMuNjEsMzMuNDFoLTEwNS44MVpNMTk1LjU5LDI1My43OGMtMTAuNzguMTMtMTcuMDIsMTIuMzktMTAuNzMsMjEuMjMsNi45Myw5Ljc0LDIyLjI5LDYuMDIsMjQuMDgtNS43MSwxLjIyLTguMDItNS4xNC0xNS42MS0xMy4zNS0xNS41MVoiIGNsYXNzPSJjbHMtMSIvPiYjeGE7ICA8cGF0aCBkPSJNOTQuODQsODIuMjF2LTM0LjI5Yy43NC0xOS4wNSw4LjU5LTI2Ljc0LDI2LjQ4LTMxLjQ3LDExLjAyLTIuOTEsMjQuNjgtNC40MywzNi4wOC00Ljc4LDExLjg1LS4zNywyMS40MS42NywzMi45MiwzLjA1LDE2Ljc2LDMuNDcsMzEuOTYsMTQuMzQsMzQuNTUsMzIuMjUuNTIsMjQuMjYuMDcsNDguNTkuMjMsNzIuODctMS4wMywxOC4xNC0xNS43MSwzMi45MS0zMy44OSwzMy44OWgtNjYuNjFjLTIxLjg4LDEuNDItNDAuMTcsMjAuMDItNDEuOTYsNDEuNzN2NDEuOTVzLTMwLjc1LDAtMzAuNzUsMGMtMTguNy0xLjAxLTI5LjYxLTE1LjM2LTM0LjU3LTMyLjAzLTcuNTgtMjUuNTEtNy44NS01MS40NC0uMzktNzcuMDEsNS41OS0xOS4xNiwyMC44OS0zMi4xOCw0MS4wNS0zMy40MWgxMDguMzZzMC0xMi43NiwwLTEyLjc2aC03MS41MVpNMTIyLjMxLDM5LjYzYy00LjkyLjU2LTkuNSw0LjY3LTEwLjg2LDkuMzgtMy4zNiwxMS42NCw4Ljk4LDIxLjU0LDE5LjU1LDE1LjQyLDEyLjQ2LTcuMjEsNi4yNi0yNi40OS04LjY5LTI0LjhaIiBjbGFzcz0iY2xzLTEiLz4mI3hhOzwvc3ZnPg==;fontSize=24;" vertex="1" parent="1">
          <mxGeometry x="833.75" y="777.5000000000001" width="110" height="110" as="geometry" />
        </mxCell>
        <mxCell id="IlfPTuKvDt6BWYe52CAe-27" value="GX Core" style="text;html=1;strokeColor=none;fillColor=none;align=left;verticalAlign=top;whiteSpace=wrap;rounded=0;fontSize=24;spacing=4;spacingLeft=9;" vertex="1" parent="1">
          <mxGeometry x="760" y="720" width="150" height="46.25" as="geometry" />
        </mxCell>
        <mxCell id="IlfPTuKvDt6BWYe52CAe-42" value="" style="endArrow=blockThin;html=1;rounded=0;strokeWidth=4;endFill=1;fontSize=24;exitX=0.444;exitY=1;exitDx=0;exitDy=0;exitPerimeter=0;entryX=0.4;entryY=-0.065;entryDx=0;entryDy=0;entryPerimeter=0;" edge="1" parent="1" source="IlfPTuKvDt6BWYe52CAe-22" target="IlfPTuKvDt6BWYe52CAe-27">
          <mxGeometry width="50" height="50" relative="1" as="geometry">
            <mxPoint x="740" y="351.25" as="sourcePoint" />
            <mxPoint x="820" y="710" as="targetPoint" />
          </mxGeometry>
        </mxCell>
        <mxCell id="IlfPTuKvDt6BWYe52CAe-45" value="GX workflow configurations and validation results are persisted in GX Cloud storage" style="text;html=1;align=left;verticalAlign=middle;whiteSpace=wrap;rounded=0;fontSize=24;fillColor=default;" vertex="1" parent="1">
          <mxGeometry x="170" y="202.5" width="330" height="107.5" as="geometry" />
        </mxCell>
        <mxCell id="IlfPTuKvDt6BWYe52CAe-46" value="GX Cloud&lt;br&gt;web UI" style="rounded=1;whiteSpace=wrap;html=1;fontSize=24;strokeColor=#ff6310;strokeWidth=8;fillColor=#ffd4be;" vertex="1" parent="1">
          <mxGeometry x="960" y="151.25" width="160" height="188.75" as="geometry" />
        </mxCell>
        <mxCell id="r1z_n6ELlGY1OqNSISXT-2" value="" style="shape=image;verticalLabelPosition=bottom;labelBackgroundColor=default;verticalAlign=top;aspect=fixed;imageAspect=0;image=data:image/svg+xml,PHN2ZyB4bWxucz0iaHR0cDovL3d3dy53My5vcmcvMjAwMC9zdmciIHZpZXdCb3g9IjAgMCAxMjggMTI4IiBkYXRhLW5hbWU9IkxheWVyIDEiIGlkPSJMYXllcl8xIj4mI3hhOyAgPHBhdGggZD0iTS42Niw3NC45MmMuMi0uNy4zOC0xLjQxLjYtMi4xMSwxLjY1LTUuMTYsNi4zNS04LjcsMTEuNzgtOC43OCw0LjUzLS4wNiw5LjA3LS4wNywxMy42LjAyLDMuMTcuMDYsNS44OCwxLjMyLDguMjIsMy42MS04LjM2LDQuOS0xMy4zMiwxMi4wNy0xNC44NywyMS42NC0zLjExLDAtNi4xNiwwLTkuMiwwLTEuMiwwLTIuMzkuMDEtMy41OSwwLTMuMDgtLjAzLTUuMjQtMS41Ny02LjI4LTQuNDYtLjA3LS4xOC0uMTgtLjM1LS4yNy0uNTIsMC0zLjEzLDAtNi4yNywwLTkuNFoiLz4mI3hhOyAgPHBhdGggZD0iTTYzLjk3LDEwOC4zMWMtOS4yNywwLTE4LjU1LDAtMjcuODIsMC02LjE0LDAtMTAuMTUtMy45OC0xMC4xNy0xMC4xMSwwLTMuNjYtLjIxLTcuMzQuNzYtMTAuOTMsMi44LTEwLjM1LDEyLjMtMTcuMzUsMjMuMDMtMTYuOTQuNTEuMDIsMS4wNS4yLDEuNTMuNCw4LjQ3LDMuNjgsMTYuODksMy41NywyNS40NC4wNywxLjcyLS43LDMuOTktLjQ4LDUuOTItLjE2LDEwLjk0LDEuODMsMTguNDQsMTAuMTMsMTkuMjQsMjEuMTcuMTgsMi40Mi4xOCw0Ljg3LjA0LDcuMjktLjMsNS40OC00LjMsOS4yLTkuNzksOS4yMS05LjQuMDItMTguNzksMC0yOC4xOSwwWiIvPiYjeGE7ICA8cGF0aCBkPSJNODYuMTYsNDEuODRjLS4wMSwxMi4yMi05Ljk3LDIyLjE3LTIyLjE4LDIyLjE3LTEyLjIxLDAtMjIuMTYtOS45Ny0yMi4xNi0yMi4xOSwwLTEyLjIzLDkuOTMtMjIuMTQsMjIuMTgtMjIuMTMsMTIuMjcsMCwyMi4xOCw5LjkxLDIyLjE2LDIyLjE1WiIvPiYjeGE7ICA8cGF0aCBkPSJNOTMuMTEsNjcuNjRjMi4zNS0yLjI0LDUuMDMtMy41Miw4LjE2LTMuNTksNC42Mi0uMDksOS4yMy0uMSwxMy44NS0uMDEsNi41LjEyLDExLjkzLDUuNSwxMi4xNiwxMS45OS4wOSwyLjM5LjA3LDQuNzguMDEsNy4xNy0uMDksMy4zNi0yLjc1LDYuMDMtNi4xMSw2LjA4LTQuMTIuMDYtOC4yNC4wMS0xMi4zNy4wMy0uNjMsMC0uOTQtLjEzLTEuMDYtLjg0LTEuNTUtOC45OC02LjMyLTE1Ljc2LTE0LjExLTIwLjQ2LS4xNC0uMDgtLjI3LS4xOC0uNTQtLjM2WiIvPiYjeGE7ICA8cGF0aCBkPSJNMTIwLjk1LDQ1YzAsNy4wMS01LjYzLDEyLjYzLTEyLjY0LDEyLjYzLTYuOTgsMC0xMi42Ni01LjY3LTEyLjY1LTEyLjY1LDAtNi45OCw1LjY4LTEyLjYzLDEyLjY3LTEyLjYzLDcuMDEsMCwxMi42NCw1LjY0LDEyLjYzLDEyLjY0WiIvPiYjeGE7ICA8cGF0aCBkPSJNNy4wMiw0NS4wM2MtLjAyLTcuMDEsNS42LTEyLjY2LDEyLjYtMTIuNjgsNy0uMDIsMTIuNjgsNS42MywxMi43LDEyLjYuMDEsNi45OC01LjY0LDEyLjY2LTEyLjYyLDEyLjY4LTcuMDEuMDEtMTIuNjUtNS41OS0xMi42OC0xMi42WiIvPiYjeGE7PC9zdmc+;fontSize=30;" vertex="1" parent="1">
          <mxGeometry x="1230" y="181.63" width="128" height="128" as="geometry" />
        </mxCell>
        <mxCell id="r1z_n6ELlGY1OqNSISXT-3" value="&lt;font face=&quot;Helvetica&quot;&gt;Run data validation from Airflow using&amp;nbsp;&lt;/font&gt;&lt;span style=&quot;font-family: &amp;quot;Roboto Mono&amp;quot;;&quot;&gt;CloudDataContext&lt;/span&gt;&lt;font face=&quot;Helvetica&quot;&gt;-fetched&amp;nbsp;&lt;/font&gt;&lt;font face=&quot;Helvetica&quot;&gt;Checkpoint&lt;/font&gt;" style="text;html=1;align=left;verticalAlign=middle;whiteSpace=wrap;rounded=0;fontSize=24;fillColor=default;" vertex="1" parent="1">
          <mxGeometry x="1030" y="800" width="345" height="100" as="geometry" />
        </mxCell>
        <mxCell id="r1z_n6ELlGY1OqNSISXT-4" value="&lt;font data-font-src=&quot;https://fonts.googleapis.com/css?family=Roboto+Mono&quot; face=&quot;Roboto Mono&quot;&gt;CloudDataContext&lt;/font&gt;&amp;nbsp;creates Data Asset, Expectations, and Checkpoint" style="text;html=1;align=left;verticalAlign=middle;whiteSpace=wrap;rounded=0;fontSize=24;fillColor=default;" vertex="1" parent="1">
          <mxGeometry x="20" y="770" width="320" height="90" as="geometry" />
        </mxCell>
        <mxCell id="IlfPTuKvDt6BWYe52CAe-22" value="GX Cloud storage" style="rounded=1;whiteSpace=wrap;html=1;fontSize=24;strokeColor=#ff6310;strokeWidth=8;fillColor=#ffd4be;" vertex="1" parent="1">
          <mxGeometry x="600" y="151.25" width="320" height="188.75" as="geometry" />
        </mxCell>
        <mxCell id="IlfPTuKvDt6BWYe52CAe-38" value="" style="endArrow=blockThin;html=1;rounded=0;strokeWidth=4;endFill=1;fontSize=24;entryX=0.147;entryY=0.999;entryDx=0;entryDy=0;exitX=0.5;exitY=0;exitDx=0;exitDy=0;entryPerimeter=0;" edge="1" parent="1" source="IlfPTuKvDt6BWYe52CAe-9" target="IlfPTuKvDt6BWYe52CAe-22">
          <mxGeometry width="50" height="50" relative="1" as="geometry">
            <mxPoint x="480" y="700" as="sourcePoint" />
            <mxPoint x="620" y="390" as="targetPoint" />
          </mxGeometry>
        </mxCell>
        <mxCell id="IlfPTuKvDt6BWYe52CAe-51" value="" style="endArrow=blockThin;html=1;rounded=0;strokeWidth=4;endFill=1;fontSize=24;exitX=0.892;exitY=0.01;exitDx=0;exitDy=0;exitPerimeter=0;entryX=0.867;entryY=1.004;entryDx=0;entryDy=0;entryPerimeter=0;" edge="1" parent="1" source="IlfPTuKvDt6BWYe52CAe-25" target="IlfPTuKvDt6BWYe52CAe-22">
          <mxGeometry width="50" height="50" relative="1" as="geometry">
            <mxPoint x="950" y="680" as="sourcePoint" />
            <mxPoint x="840" y="351" as="targetPoint" />
          </mxGeometry>
        </mxCell>
        <mxCell id="IlfPTuKvDt6BWYe52CAe-44" value="&lt;font face=&quot;Roboto Mono&quot;&gt;CloudDataContext&lt;/font&gt; accesses Checkpoint configuration from&lt;br&gt;GX Cloud" style="text;html=1;align=left;verticalAlign=middle;whiteSpace=wrap;rounded=0;fontSize=24;fillColor=default;" vertex="1" parent="1">
          <mxGeometry x="650" y="440" width="240" height="120" as="geometry" />
        </mxCell>
        <mxCell id="IlfPTuKvDt6BWYe52CAe-28" value="&lt;font data-font-src=&quot;https://fonts.googleapis.com/css?family=Roboto+Mono&quot; face=&quot;Roboto Mono&quot;&gt;CloudDataContext&lt;/font&gt; sends data validation results to GX Cloud" style="text;html=1;align=left;verticalAlign=top;whiteSpace=wrap;rounded=0;fontSize=24;fillColor=default;" vertex="1" parent="1">
          <mxGeometry x="880" y="590" width="260" height="100" as="geometry" />
        </mxCell>
        <mxCell id="IlfPTuKvDt6BWYe52CAe-3" value="&lt;font data-font-src=&quot;https://fonts.googleapis.com/css?family=Roboto+Mono&quot; face=&quot;Roboto Mono&quot;&gt;CloudDataContext&lt;/font&gt; stores workflow&amp;nbsp;configuration in&lt;br&gt;GX Cloud" style="text;html=1;align=left;verticalAlign=top;whiteSpace=wrap;rounded=0;fontSize=24;fillColor=default;" vertex="1" parent="1">
          <mxGeometry x="340" y="590" width="320" height="100" as="geometry" />
        </mxCell>
        <mxCell id="r1z_n6ELlGY1OqNSISXT-7" value="" style="endArrow=blockThin;html=1;rounded=0;strokeWidth=4;endFill=1;fontSize=24;entryX=-0.002;entryY=0.165;entryDx=0;entryDy=0;entryPerimeter=0;" edge="1" parent="1">
          <mxGeometry width="50" height="50" relative="1" as="geometry">
            <mxPoint x="1002.5" y="760.5" as="sourcePoint" />
            <mxPoint x="1400.0149999999999" y="761" as="targetPoint" />
          </mxGeometry>
        </mxCell>
        <mxCell id="r1z_n6ELlGY1OqNSISXT-8" value="" style="endArrow=blockThin;html=1;rounded=0;strokeWidth=4;endFill=1;fontSize=24;entryX=1;entryY=0.5;entryDx=0;entryDy=0;" edge="1" parent="1">
          <mxGeometry width="50" height="50" relative="1" as="geometry">
            <mxPoint x="1400" y="783" as="sourcePoint" />
            <mxPoint x="1002.5" y="782.5" as="targetPoint" />
          </mxGeometry>
        </mxCell>
        <mxCell id="r1z_n6ELlGY1OqNSISXT-10" value="" style="endArrow=blockThin;html=1;rounded=0;strokeWidth=4;endFill=1;fontSize=24;" edge="1" parent="1">
          <mxGeometry width="50" height="50" relative="1" as="geometry">
            <mxPoint x="1220" y="245.38" as="sourcePoint" />
            <mxPoint x="1120" y="245.13" as="targetPoint" />
          </mxGeometry>
        </mxCell>
      </root>
    </mxGraphModel>
  </diagram>
</mxfile>
